PathFileType	4	(X/Y/Z)	41_1_5_p0_0-259_filt_butterworth.trc
DataRate	CameraRate	NumFrames	NumMarkers	Units	OrigDataRate	OrigDataStartFrame	OrigNumFrames
59.0	59.0	5	27	m	59.0	32	259
Frame#	Time	RHip			RKnee			RAnkle			RBigToe			RSmallToe			RHeel			LHip			LKnee			LAnkle			LBigToe			LSmallToe			LHeel			Neck			Head			Nose			RShoulder			RElbow			RWrist			RThumb			RIndex			RPinky			LShoulder			LElbow			LWrist			LThumb			LIndex			LPinky			
		X1	Y1	Z1	X2	Y2	Z2	X3	Y3	Z3	X4	Y4	Z4	X5	Y5	Z5	X6	Y6	Z6	X7	Y7	Z7	X8	Y8	Z8	X9	Y9	Z9	X10	Y10	Z10	X11	Y11	Z11	X12	Y12	Z12	X13	Y13	Z13	X14	Y14	Z14	X15	Y15	Z15	X16	Y16	Z16	X17	Y17	Z17	X18	Y18	Z18	X19	Y19	Z19	X20	Y20	Z20	X21	Y21	Z21	X22	Y22	Z22	X23	Y23	Z23	X24	Y24	Z24	X25	Y25	Z25	X26	Y26	Z26	X27	Y27	Z27	
32	0.5423728813559322	0.3793221100800527	0.4868300400364689	-0.023690116181820205	0.38933368126640233	0.6241376550335532	0.3737932135197438	0.3936174343702658	0.6966299177697237	0.7225331006494613	0.36520902270162386	0.5467149270643306	0.7581063878462356	0.4328121750072782	0.5466314420915781	0.7495802498727402	0.36954626998663587	0.7966859419524216	0.7939216810356109	0.1920003533967578	0.5427634334498961	-0.004639779115599238	0.17547840740273807	0.6436019734123937	0.39300825482858026	0.18709500955666916	0.700360920949804	0.7431370939639385	0.19495004212902411	0.510902484251934	0.7314402084355118	0.14423366226375872	0.5667265451207668	0.7486090390524459	0.2067709098438137	0.7516235276282692	0.7900822418815183	0.2731196204129413	0.5038883724276328	-0.5574763139863879	0.26274420629178885	0.4748076394177284	-0.7933966351838724	0.2576264200316447	0.3586319414377218	-0.672604592057427	0.41858298022740753	0.5045673197358541	-0.45397704884114337	0.5177962306002591	0.5243404382367364	-0.2376482418893468	0.35272527464472686	0.41659601625952136	-0.15369733535306612	0.23274980498574602	0.3936659601796579	-0.17684728132482452	0.22800164216117164	0.40199450825985517	-0.1124667107668649	0.24579256563545196	0.4305332759813757	-0.0782693914773452	0.10344190692417222	0.511643781859184	-0.46767712618091195	0.034330707214610935	0.5147891010209737	-0.25634492690731986	0.15002342074960665	0.43060676817932947	-0.1692909335650704	0.23215595091801283	0.41317123747771434	-0.17586664214799363	0.24342180970783042	0.4166884128900301	-0.12558701790429483	0.24033083262840654	0.4300405649463511	-0.08340231639713191
33	0.559322033898305	0.3798522207280286	0.4877359933411396	-0.02315864148065496	0.38918756659201087	0.624105886206751	0.3737386607600666	0.39394771352348845	0.6948073215721381	0.7215217203527152	0.36522922599694596	0.5465593591502109	0.7580187560814413	0.43326900631408927	0.5446249519368422	0.7484602955198365	0.3687509864929383	0.7943648966044562	0.7937949731948644	0.19202087451927496	0.5427905462238322	-0.004677045840749736	0.17609576410998037	0.6418370240721537	0.3933510639563531	0.18708840750405406	0.7003263423235757	0.74287302998826	0.1949251224277248	0.5108453351333649	0.7314103731668806	0.14443870291394656	0.5660343241293955	0.7480578054589896	0.20674698374394368	0.7513258974651865	0.7910489481867422	0.27215303293631443	0.5008623132034223	-0.5576692221314731	0.2614407050358607	0.47086754532755287	-0.7933128344435516	0.2576504701635304	0.35864454523410716	-0.6725460702084444	0.41822370541354914	0.5044267153308558	-0.4562566967601389	0.5179891783347962	0.5229956031906997	-0.23800990079512518	0.3526387502370302	0.4165065578415301	-0.1536831002442263	0.2318014930812428	0.3970839703865652	-0.17565315703228496	0.22779697537530164	0.4018586151367041	-0.11169855499670892	0.24578465902316732	0.43053450760715206	-0.07824162754125374	0.10348401061079572	0.5115312858675822	-0.4663313532751444	0.03449496892485571	0.5149445356098078	-0.254927307731109	0.1485884447844074	0.4350980394305394	-0.16822608000792424	0.23212932906578243	0.4131968920995965	-0.17580920274657957	0.24217841514243382	0.4184729744606177	-0.12578280090714125	0.24053457914264503	0.43025539781561706	-0.08242765933267676
34	0.576271186440678	0.3799057032118528	0.48752576178568596	-0.023542652575482246	0.3890604071537603	0.624051623315066	0.37365268056404854	0.39478717116129913	0.6902345724162878	0.7191434850402938	0.36527494530934473	0.5466417276086227	0.75792831953886	0.4340749202243701	0.5403912342032793	0.7460831114243737	0.36696923288970507	0.7893512229746655	0.7915366760264441	0.19244301905753153	0.5429245209627542	-0.004693705351934802	0.17772256282635643	0.6415607287512208	0.39278048711652247	0.18740270200823825	0.7003994911321741	0.7426304604313104	0.19491570489664925	0.5109179825142798	0.731437380570562	0.14460929179759274	0.5656684266249922	0.7477093681581143	0.20671285273677437	0.7513385712604826	0.7907233593918792	0.27091599792821425	0.49687757424196366	-0.5579130482681981	0.2600167347942824	0.46782954387852427	-0.793173689637402	0.2572866602129993	0.3597926979625511	-0.6725423709991297	0.4175893948586257	0.5044215005723977	-0.45754666532869825	0.5180061424601445	0.5227398082311817	-0.23920004598706096	0.35251812922602077	0.4162810973285562	-0.15370865450625573	0.23128068759349568	0.3986469344920951	-0.1740840625558272	0.22769553799885145	0.402000286692462	-0.11073821978474344	0.24580748263607627	0.4305468565686481	-0.07823269703085454	0.10307637742010665	0.5127629279963428	-0.4651021319186042	0.034460216799345994	0.5163614251757944	-0.2535411865080649	0.14752412374873464	0.4384578082369479	-0.1674390040666191	0.23210122238805148	0.41318293862051036	-0.17582034800545548	0.24140630093955173	0.42177168228693	-0.12625729065342356	0.24063358060223916	0.43032527645944263	-0.0820521468862768
35	0.5932203389830508	0.3798044600286008	0.4872740219893763	-0.024249362402037296	0.3893546335687454	0.6241083249310208	0.37357776870765413	0.3958982922820504	0.6841829222992887	0.7160684085697775	0.3653237315320571	0.5470624405856397	0.757943150538569	0.4350234752917621	0.5351279153689135	0.7431142454443526	0.365403363263464	0.7851797133196458	0.7881382103428747	0.19348358138899022	0.5431999413241428	-0.0046761214922940685	0.17986670861965592	0.6418025651971783	0.39166305962860504	0.1873583526046599	0.7003532824917071	0.7420332665848735	0.19495400907643914	0.511207166492343	0.7315584935094933	0.144336417340573	0.5670667863418866	0.7484594972959109	0.20666484149601919	0.7513711125684518	0.7883760653559506	0.2699257636706455	0.4938475485385673	-0.5581021759879076	0.2585250356960598	0.4665298306125091	-0.7931007439739134	0.25633821868579254	0.362721533404611	-0.6727376250692076	0.4164489513970716	0.5043886172948748	-0.45782012062587085	0.5179569522711586	0.5229405609689443	-0.24083122010070396	0.35248340315147525	0.4162579480783345	-0.15371659116530073	0.23124252709439164	0.3991568525049509	-0.1721321628688629	0.22800457274059677	0.40331077138581395	-0.10963665558456341	0.2458752548731067	0.4306023669932807	-0.0782153480464745	0.10197511312047362	0.5161830806566335	-0.4641972809543824	0.03394670066476724	0.5197709331652495	-0.2523634107553249	0.1475260598725147	0.4395956409910291	-0.1671955294896366	0.2320959614803026	0.413148898545327	-0.17586018842724335	0.24173214500776222	0.4246808805018017	-0.12712678446180475	0.24066027903306064	0.430298227113769	-0.08205168996182084
36	0.6101694915254238	0.3796375316666978	0.4872441137760991	-0.024680725291749948	0.3904949544462082	0.6243718253871064	0.37354600317875475	0.3967366801863766	0.6796214585084445	0.713781588978359	0.3653504718923659	0.5475535383415711	0.7580634697416362	0.43587573197507734	0.5315725955181069	0.7410780351555245	0.36457650052690316	0.7833498043452487	0.7851345049887859	0.19485685127547034	0.5435544253677987	-0.004653353824966322	0.181343187899744	0.6420324415969432	0.39091737501929114	0.18703251440344934	0.700285422921826	0.7409179161416282	0.19503454500724562	0.5116433392273522	0.7317439186258604	0.14334130418873808	0.5711535277473373	0.7503435594713327	0.20657607304272796	0.7509959353979988	0.7849112032945106	0.2691504747575848	0.4924959188417811	-0.5582020549397881	0.25706845954014235	0.46638523458763115	-0.7934200126174646	0.25504553511931866	0.3665030464892347	-0.6734233466075145	0.4150418256833737	0.5042865578700257	-0.4575938847086612	0.5179040352744533	0.5231407138108195	-0.24203541551166818	0.3528656778329023	0.4173022079870051	-0.15352039418066718	0.2319497373299239	0.3994298322289776	-0.1705342839970595	0.22898238413194089	0.4064159591547324	-0.10892299148758787	0.2459600241057373	0.4306913337870399	-0.07819402579659679	0.10052104349282198	0.5207900855512589	-0.4635591526333965	0.0330711668703695	0.5243262640748831	-0.25144587235398663	0.1488601344386677	0.4391959279820982	-0.1673509662396415	0.23211294945685756	0.4131254525451127	-0.17590362057345743	0.24296275942411846	0.4245692981154985	-0.12822672825531498	0.24066289547673073	0.43024629845865225	-0.08214103157978013
